<svg xmlns="http://www.w3.org/2000/svg" width="253.414" height="38.135" viewBox="0 0 253.414 38.135">
  <g id="logo-service" transform="translate(0 -4.027)">
    <g id="Groupe_52" data-name="Groupe 52" transform="translate(0 4.027)">
      <path id="Tracé_83" data-name="Tracé 83" d="M68.566,15.613a8.081,8.081,0,0,1-8.294,8.1H56.744v7.341H51.5V7.7h8.866a8.02,8.02,0,0,1,8.2,7.913m-5.53,0a2.858,2.858,0,0,0-2.86-3.051H56.648v6.006h3.528a2.681,2.681,0,0,0,2.86-2.955" transform="translate(-2.401 -0.359)" fill="#071f32"/>
      <rect id="Rectangle_35" data-name="Rectangle 35" width="5.244" height="23.453" transform="translate(115.168 7.341)" fill="#071f32"/>
      <path id="Tracé_84" data-name="Tracé 84" d="M102.044,23.621v7.341H96.8V7.7h9.438a7.985,7.985,0,0,1,3.814,15.063l4.862,8.485H109.1L105,23.907h-2.86v-.286Zm0-4.672h3.909a2.859,2.859,0,0,0,2.669-3.146,2.859,2.859,0,0,0-2.669-3.146h-3.909Z" transform="translate(-4.513 -0.359)" fill="#071f32"/>
      <path id="Tracé_85" data-name="Tracé 85" d="M83.982,7.7H77.213L69.3,31.153h5.816l1.335-4.29a15.725,15.725,0,0,0,4.1.572,13.743,13.743,0,0,0,4.1-.572l1.335,4.1H91.9ZM80.645,22.668a14.719,14.719,0,0,1-2.86-.381l2.86-8.676,2.86,8.676A9.841,9.841,0,0,1,80.645,22.668Z" transform="translate(-3.231 -0.359)" fill="#071f32"/>
      <path id="Tracé_86" data-name="Tracé 86" d="M140.257,12.344a4.612,4.612,0,0,1,4.1,2.479l4.29-2.479A9.211,9.211,0,0,0,139.971,7.1c-3.909,0-7.913,2.479-7.913,7.15,0,5.434,5.244,6.578,6.96,7.15s4.862.953,4.862,3.051c0,1.335-1.525,1.907-3.337,1.907a5.571,5.571,0,0,1-4.862-3.051L131.2,25.786a10.223,10.223,0,0,0,9.438,5.816c5.053,0,8.676-2.669,8.676-7.15,0-3.528-1.907-5.625-6.578-6.96-3.527-1.144-5.053-1.716-5.053-3.146-.1-1.239,1.049-2,2.574-2" transform="translate(-6.117 -0.331)" fill="#071f32"/>
      <path id="Tracé_87" data-name="Tracé 87" d="M40.614,22.5c-.191,0-.191.191-.381.572-3.814,8.294-10.773,12.013-17.924,12.2-14.4.191-18.019-11.822-18.019-12.2l7.341,1.335s2.86,6.578,10.3,6.578c7.913,0,13.538-7.913,13.538-16.112A17.072,17.072,0,0,0,27.934,0L7.722,9.438c-.191,0-.191.381,0,.381C18.972,12.489,20.879,20.5,20.307,25.074c0,.763.381.572.763-.763A12.856,12.856,0,0,0,15.445,9.438l11.25-5.72c1.335,1.144,5.816,3.909,5.816,11.059s-4.1,13.538-10.3,13.538-8.485-6.388-8.485-6.388L.381,19.068A.41.41,0,0,0,0,19.449,20.844,20.844,0,0,0,21.07,38.135c9.724,0,16.493-5.434,19.354-12.966.572-2.1.381-2.669.191-2.669" transform="translate(0)" fill="#071f32"/>
    </g>
    <rect id="Rectangle_36" data-name="Rectangle 36" width="2.288" height="37.945" transform="translate(160.835 4.027)" fill="#071f32"/>
    <path id="Tracé_57596" data-name="Tracé 57596" d="M2.075-17.5h7.95a11.173,11.173,0,0,1,5.038,1.087,8.142,8.142,0,0,1,3.4,3.063,8.614,8.614,0,0,1,1.212,4.6,8.614,8.614,0,0,1-1.212,4.6,8.142,8.142,0,0,1-3.4,3.062A11.173,11.173,0,0,1,10.025,0H2.075ZM9.825-3.325a5.881,5.881,0,0,0,4.188-1.462A5.166,5.166,0,0,0,15.575-8.75a5.166,5.166,0,0,0-1.562-3.962,5.881,5.881,0,0,0-4.188-1.462h-3.7v10.85ZM34-3.75H25.875L24.325,0h-4.15l7.8-17.5h4L39.8,0H35.55ZM32.725-6.825l-2.775-6.7-2.775,6.7ZM44.375-14.2h-5.6v-3.3h15.25v3.3h-5.6V0h-4.05ZM66.85-3.75H58.725L57.175,0h-4.15l7.8-17.5h4L72.65,0H68.4ZM65.575-6.825l-2.775-6.7-2.775,6.7Z" transform="translate(180.764 32.094)" fill="#071f32"/>
  </g>
</svg>
